<?xml version="1.0"?>
<svg width="1246" height="1280" xmlns="http://www.w3.org/2000/svg" xmlns:svg="http://www.w3.org/2000/svg" preserveAspectRatio="xMidYMid meet">
 <metadata>Created by potrace 1.15, written by Peter Selinger 2001-2017</metadata>
 <g class="layer">
  <title>Camada 2</title>
 </g>
 <g class="layer">
  <title>Layer 1</title>
  <g fill="#000000" id="svg_1" transform="translate(0 1280) scale(0.1 -0.1)">
   <path d="m0,12182c0,-781 15,-1258 56,-1832c237,-3332 1244,-6067 2964,-8050c259,-298 527,-569 840,-851c696,-625 1573,-1176 2228,-1400l142,-48l143,48c477,163 1096,512 1662,939c1345,1012 2433,2440 3182,4177c652,1511 1050,3251 1187,5185c42,584 58,1156 54,1892l-3,556l-350,-155c-521,-230 -724,-316 -993,-420c-905,-349 -1637,-543 -2047,-543c-500,0 -1561,315 -2617,777l-218,95l-187,-82c-401,-176 -810,-333 -1223,-471c-769,-256 -1259,-350 -1610,-310c-322,37 -720,137 -1241,311c-485,162 -822,294 -1424,560c-214,95 -425,187 -467,206l-78,33l0,-617zm6367,-913c1241,-497 2207,-744 2793,-715c356,18 764,97 1280,249c173,51 638,205 798,265l83,31l-6,-122c-49,-950 -127,-1663 -266,-2435c-445,-2467 -1420,-4493 -2854,-5927c-572,-572 -1182,-1023 -1802,-1334l-161,-81l-69,32c-206,96 -497,263 -733,421c-1413,944 -2553,2426 -3285,4272c-466,1173 -773,2493 -919,3945c-37,360 -52,570 -82,1112l-6,117l84,-31c156,-59 623,-214 798,-265c305,-90 618,-165 825,-198c55,-8 127,-20 160,-25c33,-5 133,-15 223,-22c373,-27 830,42 1469,223c350,99 973,317 1383,483c74,30 141,55 147,56c7,0 70,-23 140,-51z" fill="#722f37" id="svg_2"/>
  </g>
  <text fill="#722f37" font-family="Sans-serif" font-size="650" id="svg_3" stroke="#000000" stroke-width="0" text-anchor="middle" transform="matrix(1 0 0 1 0 0)" x="623" xml:space="preserve" y="865">G</text>
 </g>
</svg>